# xmcd CD database file
#
# Track frame offsets:
#	150
#	16822
#	30465
#	45209
#	59221
#	72196
#	87904
#	100702
#	113724
#	127610
#	142120
#	155529
#	167448
#	181197
#	194686
#	208562
#	221547
#
# Disc length: 3168 seconds
#
# Revision: 0
# Processed by: cddbd v1.5.2PL0 Copyright (c) Steve Scherf et al.
# Submitted via: CDex 1.51
#
DISCID=e00c5e11
DTITLE=Billie Holiday - Only! Billie Holiday
DYEAR=2013
DGENRE=Jazz
TTITLE0=Stormy Weather
TTITLE1=My Man
TTITLE2=Lover Man (Oh, Where Can You Be?)
TTITLE3=Good Morning Heartache
TTITLE4=You Go To My Head
TTITLE5=Blue Moon
TTITLE6=A Fine Romance
TTITLE7=Summertime
TTITLE8=The Man I Love
TTITLE9=Solitude
TTITLE10=Body And Soul
TTITLE11=Billie's Blues (I Love My Man)
TTITLE12=If Dreams Come True
TTITLE13=What A Little Moonlight Can Do
TTITLE14=Long Gone Blues
TTITLE15=That Old Devil Called Love
TTITLE16=These Foolish Things
EXTD=YEAR: 2013
EXTT0=
EXTT1=
EXTT2=
EXTT3=
EXTT4=
EXTT5=
EXTT6=
EXTT7=
EXTT8=
EXTT9=
EXTT10=
EXTT11=
EXTT12=
EXTT13=
EXTT14=
EXTT15=
EXTT16=
PLAYORDER=
